<?xml version="1.0" encoding="UTF-8"?>
<!DOCTYPE svg PUBLIC "-//W3C//DTD SVG 1.1//EN" "http://www.w3.org/Graphics/SVG/1.1/DTD/svg11.dtd">
<svg version="1.2" xmlns="http://www.w3.org/2000/svg" xmlns:xlink="http://www.w3.org/1999/xlink" x="0" y="0" width="389" height="231" viewBox="0 0 389 231">
<style type="text/css"><![CDATA[
text { font:12px Dialog; }
]]></style>
<rect x="-485" y="-485" width="1359" height="1201" style="fill:rgb(255,255,255);stroke:none" />
<clipPath id="clip1"><path d="M15,15 L374,15 L374,216 L15,216 Z M137,86 C132.5817261,86 129,89.5817184 129,94 L129,135 C129,139.4182739 132.5817261,143 137,143 L225,143 C229.4182739,143 233,139.4182739 233,135 L233,94 C233,89.5817184 229.4182739,86 225,86 Z M137,86" /></clipPath>
<path d="M207.9263763,86 C219.0538483,50.6666641 235.7450562,33 258,33" style="fill:none;stroke:rgb(85,142,213)" clip-path="url(#clip1)" />
<clipPath id="clip2"><path d="M15,15 L374,15 L374,216 L15,216 Z M137,86 C132.5817261,86 129,89.5817184 129,94 L129,135 C129,139.4182739 132.5817261,143 137,143 L225,143 C229.4182739,143 233,139.4182739 233,135 L233,94 C233,89.5817184 229.4182739,86 225,86 Z M137,86" /></clipPath>
<path d="M233,114.7241364 C247.222229,114.9080429 268.555542,115 297,115" style="fill:none;stroke:rgb(85,142,213)" clip-path="url(#clip2)" />
<clipPath id="clip3"><path d="M15,15 L374,15 L374,216 L15,216 Z M137,86 C132.5817261,86 129,89.5817184 129,94 L129,135 C129,139.4182739 132.5817261,143 137,143 L225,143 C229.4182739,143 233,139.4182739 233,135 L233,94 C233,89.5817184 229.4182739,86 225,86 Z M137,86" /></clipPath>
<path d="M207.6000061,143 C218.8000031,179 235.6000061,197 258,197" style="fill:none;stroke:rgb(85,142,213)" clip-path="url(#clip3)" />
<clipPath id="clip4"><path d="M15,15 L374,15 L374,216 L15,216 Z M137,86 C132.5817261,86 129,89.5817184 129,94 L129,135 C129,139.4182739 132.5817261,143 137,143 L225,143 C229.4182739,143 233,139.4182739 233,135 L233,94 C233,89.5817184 229.4182739,86 225,86 Z M137,86" /></clipPath>
<path d="M134.8347168,143 C123.3158875,164.3333282 106.0376511,175 83,175" style="fill:none;stroke:rgb(85,142,213)" clip-path="url(#clip4)" />
<clipPath id="clip5"><path d="M125,82 L238,82 L238,148 L125,148 L125,82 Z" /></clipPath>
<path d="M137,86 C132.5817261,86 129,89.5817184 129,94 L129,135 C129,139.4182739 132.5817261,143 137,143 L225,143 C229.4182739,143 233,139.4182739 233,135 L233,94 C233,89.5817184 229.4182739,86 225,86 Z M137,86" style="fill:rgb(220,230,242);stroke:none" clip-path="url(#clip5)" />
<clipPath id="clip6"><path d="M125,82 L238,82 L238,148 L125,148 L125,82 Z" /></clipPath>
<path d="M137,86 C132.5817261,86 129,89.5817184 129,94 L129,135 C129,139.4182739 132.5817261,143 137,143 L225,143 C229.4182739,143 233,139.4182739 233,135 L233,94 C233,89.5817184 229.4182739,86 225,86 Z M137,86" style="fill:none;stroke:rgb(85,142,213);stroke-width:5" clip-path="url(#clip6)" />
<clipPath id="clip7"><path d="M161,102 L202,102 L202,128 L161,128 L161,102 Z" /></clipPath>
<path d="M166.4926758,119.8999023 L169.059082,119.8999023 L169.059082,112.262207 L171.0629883,112.262207 L171.0629883,110.3110352 L169.0063477,110.3110352 L169.0063477,109.5024414 C169.0063477,109.074707 169.1103516,108.7583008 169.3183594,108.5532227 C169.5263672,108.3481445 169.8793945,108.2456055 170.3774414,108.2456055 C170.5415039,108.2456055 170.6894531,108.25 170.8212891,108.2587891 C170.953125,108.2675781 171.0600586,108.277832 171.1420898,108.2895508 L171.1420898,106.5229492 C170.9545898,106.4936523 170.7539063,106.4702148 170.5400391,106.4526367 C170.3261719,106.4350586 170.0874023,106.4262695 169.8237305,106.4262695 C168.6518555,106.4262695 167.8037109,106.6679688 167.2792969,107.1513672 C166.7548828,107.6347656 166.4926758,108.356926 166.4926758,109.3178711 L166.4926758,110.3110352 L164.9282227,110.3110352 L164.9282227,112.262207 L166.4926758,112.262207 C166.4926758,112.262207 166.4926758,112.5200195 166.4926758,113.0356445 C166.4926758,113.5512695 166.4926758,114.1870117 166.4926758,114.9428711 C166.4926758,115.6987305 166.4926758,116.4560547 166.4926758,117.2148438 C166.4926758,117.9736328 166.4926758,118.6108398 166.4926758,119.1264648 C166.4926758,119.6420898 166.4926758,119.8999023 166.4926758,119.8999023 Z M173.1899414,119.8999023 L175.7475586,119.8999023 L175.7475586,106.5229492 L173.1899414,106.5229492 C173.1899414,106.5229492 173.1899414,106.8452148 173.1899414,107.4897461 C173.1899414,108.1342773 173.1899414,108.9633713 173.1899414,109.9770508 C173.1899414,110.9907303 173.1899414,112.0673752 173.1899414,113.2070313 C173.1899414,114.3466873 173.1899414,115.4247971 173.1899414,116.4414063 C173.1899414,117.4580154 173.1899414,118.2885742 173.1899414,118.9331055 C173.1899414,119.5776367 173.1899414,119.8999023 173.1899414,119.8999023 Z M181.8999023,118.1772461 C181.4545898,118.1772461 181.0913086,118.0703125 180.8100586,117.8564453 C180.5288086,117.6425781 180.3881836,117.3510742 180.3881836,116.9819336 C180.3881836,116.2612305 180.9331055,115.862793 182.0229492,115.7866211 L183.9741211,115.6547852 L183.9741211,116.3842773 C183.9741211,116.8881836 183.7763672,117.3129883 183.3808594,117.6586914 C182.9853516,118.0043945 182.4916992,118.1772461 181.8999023,118.1772461 Z M181.0561523,120.0493164 C181.6831055,120.0493164 182.2456055,119.9233398 182.7436523,119.6713867 C183.2416992,119.4194336 183.6137695,119.0708008 183.8598633,118.6254883 L184.0180664,118.6254883 L184.0180664,119.8999023 L186.5053711,119.8999023 L186.5053711,113.2905273 C186.5053711,112.2592697 186.1567383,111.4550781 185.4594727,110.8779297 C184.762207,110.3007813 183.7719727,110.012207 182.4887695,110.012207 C181.2758789,110.012207 180.2856445,110.2714844 179.5180664,110.7900391 C178.7504883,111.3085938 178.3256836,112.013176 178.2436523,112.9038086 L180.5991211,112.9038086 C180.7045898,112.6049805 180.9067383,112.3764648 181.2055664,112.2182617 C181.5043945,112.0600586 181.8852539,111.980957 182.3481445,111.980957 C183.4321289,111.980957 183.9741211,112.4174728 183.9741211,113.2905273 L183.9741211,114.090332 L181.6362305,114.230957 C179.1342621,114.371582 177.8833008,115.341301 177.8833008,117.1401367 C177.8833008,118.02491 178.1791992,118.730957 178.7709961,119.2583008 C179.362793,119.7856445 180.1245117,120.0493164 181.0561523,120.0493164 Z M193.3256836,117.7993164 C192.6342773,117.7993164 192.0981445,117.5444336 191.7172852,117.034668 C191.3364258,116.5249023 191.1459961,115.8364334 191.1459961,114.9692383 C191.1459961,114.1020432 191.3364258,113.4135742 191.7172852,112.9038086 C192.0981445,112.394043 192.6342773,112.1391602 193.3256836,112.1391602 C194.0112305,112.1391602 194.550293,112.394043 194.9428711,112.9038086 C195.3354492,113.4135742 195.5317383,114.1020432 195.5317383,114.9692383 C195.5317383,115.8422928 195.3369141,116.5322266 194.9472656,117.0390625 C194.5576172,117.5458984 194.0170898,117.7993164 193.3256836,117.7993164 Z M193.2905273,123.5737305 C194.7553711,123.5737305 195.918457,123.2412109 196.7797852,122.5761719 C197.6411133,121.9111328 198.0717773,121.0131912 198.0717773,119.8823242 L198.0717773,110.2231445 L195.5844727,110.2231445 L195.5844727,111.7700195 L195.4262695,111.7700195 C195.1743164,111.2426758 194.784668,110.8266602 194.2573242,110.5219727 C193.7299805,110.2172852 193.1381836,110.0649414 192.4819336,110.0649414 C191.2573242,110.0649414 190.2905273,110.5087814 189.581543,111.3964844 C188.8725586,112.2841873 188.5180664,113.4780197 188.5180664,114.9780273 C188.5180664,116.43116 188.8696289,117.591301 189.5727539,118.4584961 C190.2758789,119.3256912 191.230957,119.7592773 192.4379883,119.7592773 C193.1176758,119.7592773 193.706543,119.6245117 194.2045898,119.3549805 C194.7026367,119.0854492 195.0834961,118.6958008 195.347168,118.1860352 L195.5053711,118.1860352 L195.5053711,119.987793 C195.5053711,120.5444336 195.3164063,120.9780273 194.9384766,121.2885742 C194.5605469,121.5991211 194.0288086,121.7543945 193.3432617,121.7543945 C192.7924805,121.7543945 192.3442383,121.6635742 191.9985352,121.4819336 C191.652832,121.300293 191.4477539,121.0571289 191.3833008,120.7524414 L188.8432617,120.7524414 C188.925293,121.6020584 189.3647461,122.284668 190.1616211,122.800293 C190.9584961,123.315918 192.0014648,123.5737305 193.2905273,123.5737305 Z M199.3637695,119.8999023" style="fill:rgb(55,96,146);stroke:none" clip-path="url(#clip7)" />
<clipPath id="clip8"><path d="M256,14 L327,14 L327,53 L256,53 L256,14 Z" /></clipPath>
<path d="M263,16 C260.2385864,16 258,18.2385712 258,21 L258,45 C258,47.7614288 260.2385864,50 263,50 L319,50 C321.7614136,50 324,47.7614288 324,45 L324,21 C324,18.2385712 321.7614136,16 319,16 Z M263,16" style="fill:rgb(220,230,242);stroke:none" clip-path="url(#clip8)" />
<clipPath id="clip9"><path d="M256,14 L327,14 L327,53 L256,53 L256,14 Z" /></clipPath>
<path d="M263,16 C260.2385864,16 258,18.2385712 258,21 L258,45 C258,47.7614288 260.2385864,50 263,50 L319,50 C321.7614136,50 324,47.7614288 324,45 L324,21 C324,18.2385712 321.7614136,16 319,16 Z M263,16" style="fill:none;stroke:rgb(85,142,213);stroke-width:2" clip-path="url(#clip9)" />
<clipPath id="clip10"><path d="M270,23 L313,23 L313,44 L270,44 L270,23 Z" /></clipPath>
<path d="M277.5620117,37.3054199 C278.5353394,37.3054199 279.2959595,37.0779648 279.8439941,36.6230469 C280.3920288,36.168129 280.6660156,35.5386581 280.6660156,34.7346191 C280.6660156,34.1294708 280.4819336,33.6269531 280.1137695,33.2270508 C279.7456055,32.8271484 279.2483826,32.586998 278.6220703,32.5065918 L278.6220703,32.4050293 C279.0621948,32.3246231 279.4356079,32.0939941 279.7424316,31.7131348 C280.0492554,31.3322754 280.2026367,30.9048691 280.2026367,30.4309082 C280.2026367,29.7284317 279.9614258,29.1719589 279.4790039,28.7614746 C278.996582,28.3509903 278.3343201,28.145752 277.4921875,28.145752 L273.9882813,28.145752 L273.9882813,37.3054199 C273.9882813,37.3054199 274.1088867,37.3054199 274.3500977,37.3054199 C274.5913086,37.3054199 274.8896484,37.3054199 275.2451172,37.3054199 C275.6005859,37.3054199 275.9549866,37.3054199 276.3083496,37.3054199 C276.6617126,37.3054199 276.9589844,37.3054199 277.2001953,37.3054199 C277.4414063,37.3054199 277.5620117,37.3054199 277.5620117,37.3054199 Z M275.1308594,29.1550293 L277.2509766,29.1550293 C277.8180542,29.1550293 278.2591858,29.2840958 278.5744629,29.5422363 C278.88974,29.8003769 279.0473633,30.1621857 279.0473633,30.6276855 C279.0473633,31.1143417 278.8728027,31.4803848 278.5236816,31.7258301 C278.1745605,31.9712753 277.6530151,32.0939941 276.9589844,32.0939941 L275.1308594,32.0939941 C275.1308594,32.0939941 275.1308594,31.9458847 275.1308594,31.6496582 C275.1308594,31.3534317 275.1308594,31.0117188 275.1308594,30.6245117 C275.1308594,30.2373047 275.1308594,29.8955917 275.1308594,29.5993652 C275.1308594,29.3031387 275.1308594,29.1550293 275.1308594,29.1550293 Z M275.1308594,36.2961426 L275.1308594,33.0778809 L277.2827148,33.0778809 C278.0148315,33.0778809 278.565979,33.2122345 278.9362793,33.480957 C279.3065796,33.7496796 279.4916992,34.1485138 279.4916992,34.6774902 C279.4916992,35.2064667 279.3139648,35.6084747 278.9584961,35.8835449 C278.6030273,36.1586151 278.0804138,36.2961426 277.390625,36.2961426 C277.390625,36.2961426 277.2763672,36.2961426 277.0478516,36.2961426 C276.8193359,36.2961426 276.5569763,36.2961426 276.2607422,36.2961426 C275.9645081,36.2961426 275.7021484,36.2961426 275.4736328,36.2961426 C275.2451172,36.2961426 275.1308594,36.2961426 275.1308594,36.2961426 Z M285.128418,37.4260254 C286.1017456,37.4260254 286.8708496,37.1097031 287.435791,36.4770508 C288.0007324,35.8443985 288.2832031,34.9800644 288.2832031,33.8840332 C288.2832031,32.7837677 288.0007324,31.9183807 287.435791,31.2878418 C286.8708496,30.6573029 286.1017456,30.342041 285.128418,30.342041 C284.1550903,30.342041 283.3859863,30.6573029 282.8210449,31.2878418 C282.2561035,31.9183807 281.9736328,32.7837677 281.9736328,33.8840332 C281.9736328,34.9800644 282.2561035,35.8443985 282.8210449,36.4770508 C283.3859863,37.1097031 284.1550903,37.4260254 285.128418,37.4260254 Z M285.128418,36.4421387 C284.480957,36.4421387 283.9816284,36.2178574 283.6303711,35.7692871 C283.2791138,35.3207169 283.1035156,34.6923065 283.1035156,33.8840332 C283.1035156,33.0715256 283.2791138,32.4420624 283.6303711,31.9956055 C283.9816284,31.5491486 284.480957,31.3259277 285.128418,31.3259277 C285.7758789,31.3259277 286.2752075,31.5491486 286.6264648,31.9956055 C286.9777222,32.4420624 287.1533203,33.0715256 287.1533203,33.8840332 C287.1533203,34.6923065 286.9777222,35.3207169 286.6264648,35.7692871 C286.2752075,36.2178574 285.7758789,36.4421387 285.128418,36.4421387 Z M292.7329102,37.4260254 C293.7062378,37.4260254 294.4753418,37.1097031 295.0402832,36.4770508 C295.6052246,35.8443985 295.8876953,34.9800644 295.8876953,33.8840332 C295.8876953,32.7837677 295.6052246,31.9183807 295.0402832,31.2878418 C294.4753418,30.6573029 293.7062378,30.342041 292.7329102,30.342041 C291.7595825,30.342041 290.9904785,30.6573029 290.4255371,31.2878418 C289.8605957,31.9183807 289.578125,32.7837677 289.578125,33.8840332 C289.578125,34.9800644 289.8605957,35.8443985 290.4255371,36.4770508 C290.9904785,37.1097031 291.7595825,37.4260254 292.7329102,37.4260254 Z M292.7329102,36.4421387 C292.0854492,36.4421387 291.5861206,36.2178574 291.2348633,35.7692871 C290.883606,35.3207169 290.7080078,34.6923065 290.7080078,33.8840332 C290.7080078,33.0715256 290.883606,32.4420624 291.2348633,31.9956055 C291.5861206,31.5491486 292.0854492,31.3259277 292.7329102,31.3259277 C293.3803711,31.3259277 293.8796997,31.5491486 294.230957,31.9956055 C294.5822144,32.4420624 294.7578125,33.0715256 294.7578125,33.8840332 C294.7578125,34.6923065 294.5822144,35.3207169 294.230957,35.7692871 C293.8796997,36.2178574 293.3803711,36.4421387 292.7329102,36.4421387 Z M297.5888672,37.3054199 L298.6806641,37.3054199 L298.6806641,27.7458496 L297.5888672,27.7458496 C297.5888672,27.7458496 297.5888672,27.9764786 297.5888672,28.4377441 C297.5888672,28.8990097 297.5888672,29.4925079 297.5888672,30.2182617 C297.5888672,30.9440155 297.5888672,31.7131271 297.5888672,32.5256348 C297.5888672,33.3381424 297.5888672,34.107254 297.5888672,34.8330078 C297.5888672,35.5587616 297.5888672,36.1522598 297.5888672,36.6135254 C297.5888672,37.074791 297.5888672,37.3054199 297.5888672,37.3054199 Z M301.2324219,33.4968262 C301.2324219,34.6436386 301.3805237,35.6888809 301.6767578,36.6325684 C301.9729919,37.5762558 302.4257813,38.4501114 303.0351563,39.2541504 L303.9619141,39.2541504 C303.5090942,38.678627 303.1282654,37.8449783 302.8193359,36.7531738 C302.5104065,35.6613693 302.355957,34.5759354 302.355957,33.4968262 C302.355957,32.4219513 302.5114746,31.3386307 302.8225098,30.2468262 C303.1335449,29.1550217 303.5133362,28.321373 303.9619141,27.7458496 L303.0351563,27.7458496 C302.4257813,28.5498886 301.9729919,29.4237442 301.6767578,30.3674316 C301.3805237,31.3111191 301.2324219,32.3542404 301.2324219,33.4968262 Z M308.0117188,33.4968262 C308.0117188,32.3542404 307.8636169,31.3111191 307.5673828,30.3674316 C307.2711487,29.4237442 306.8183594,28.5498886 306.2089844,27.7458496 L305.2822266,27.7458496 C305.7350464,28.321373 306.1158752,29.1550217 306.4248047,30.2468262 C306.7337341,31.3386307 306.8881836,32.4219513 306.8881836,33.4968262 C306.8881836,34.5759354 306.7337341,35.6613693 306.4248047,36.7531738 C306.1158752,37.8449783 305.7350464,38.678627 305.2822266,39.2541504 L306.2089844,39.2541504 C306.8183594,38.4501114 307.2711487,37.5762558 307.5673828,36.6325684 C307.8636169,35.6888809 308.0117188,34.6436386 308.0117188,33.4968262 Z M309.5541992,37.3054199" style="fill:rgb(23,55,94);stroke:none" clip-path="url(#clip10)" />
<clipPath id="clip11"><path d="M295,96 L375,96 L375,135 L295,135 L295,96 Z" /></clipPath>
<path d="M302,98 C299.2385864,98 297,100.2385712 297,103 L297,127 C297,129.7614288 299.2385864,132 302,132 L367,132 C369.7614136,132 372,129.7614288 372,127 L372,103 C372,100.2385712 369.7614136,98 367,98 Z M302,98" style="fill:rgb(220,230,242);stroke:none" clip-path="url(#clip11)" />
<clipPath id="clip12"><path d="M295,96 L375,96 L375,135 L295,135 L295,96 Z" /></clipPath>
<path d="M302,98 C299.2385864,98 297,100.2385712 297,103 L297,127 C297,129.7614288 299.2385864,132 302,132 L367,132 C369.7614136,132 372,129.7614288 372,127 L372,103 C372,100.2385712 369.7614136,98 367,98 Z M302,98" style="fill:none;stroke:rgb(85,142,213);stroke-width:2" clip-path="url(#clip12)" />
<clipPath id="clip13"><path d="M309,105 L361,105 L361,126 L309,126 L309,105 Z" /></clipPath>
<path d="M312.6037598,116.6711426 C312.6630249,117.4624863 313.002594,118.0951309 313.6225586,118.5690918 C314.2425232,119.0430527 315.0370178,119.2800293 316.0061035,119.2800293 C317.055603,119.2800293 317.8881836,119.0314178 318.5039063,118.5341797 C319.1196289,118.0369415 319.4274902,117.3672714 319.4274902,116.5251465 C319.4274902,115.8522949 319.2211914,115.3169785 318.8085938,114.9191895 C318.3959961,114.5214005 317.7157593,114.2040176 316.7678223,113.967041 L315.8093262,113.7131348 C315.178772,113.55233 314.7270508,113.3597794 314.4541016,113.135498 C314.1811523,112.9112167 314.0446777,112.6192245 314.0446777,112.2595215 C314.0446777,111.7940216 314.2297974,111.4216309 314.6000977,111.142334 C314.9703979,110.8630371 315.4602051,110.7233887 316.0695801,110.7233887 C316.6408691,110.7233887 317.1095581,110.855629 317.4755859,111.1201172 C317.8416138,111.3846054 318.0648804,111.751709 318.1452637,112.2214355 L319.2941895,112.2214355 C319.2476196,111.4808731 318.9260254,110.8736191 318.3293457,110.3996582 C317.732666,109.9256973 316.9921265,109.6887207 316.107666,109.6887207 C315.1385803,109.6887207 314.356781,109.9288712 313.762207,110.4091797 C313.1676331,110.8894882 312.8703613,111.518959 312.8703613,112.2976074 C312.8703613,112.9493027 313.0586548,113.4708633 313.4353027,113.8623047 C313.8119507,114.253746 314.4149475,114.5552597 315.2443848,114.7668457 L316.4187012,115.0715332 C317.0492554,115.2281113 317.5126343,115.435463 317.8088379,115.6936035 C318.1050415,115.9517441 318.2531738,116.2754669 318.2531738,116.6647949 C318.2531738,117.1175995 318.0510864,117.4931641 317.6469727,117.7915039 C317.2428589,118.0898438 316.7318726,118.2390137 316.1140137,118.2390137 C315.4623108,118.2390137 314.9248657,118.0972519 314.501709,117.8137207 C314.0785522,117.5301895 313.8309937,117.1493378 313.7590332,116.6711426 C313.7590332,116.6711426 313.7008667,116.6711426 313.5844727,116.6711426 C313.4680786,116.6711426 313.3337402,116.6711426 313.1813965,116.6711426 C313.0290527,116.6711426 312.8947144,116.6711426 312.7783203,116.6711426 C312.6619263,116.6711426 312.6037598,116.6711426 312.6037598,116.6711426 Z M321.5666504,110.4504395 L321.5666504,112.2214355 L320.4621582,112.2214355 L320.4621582,113.135498 L321.5666504,113.135498 L321.5666504,117.2868652 C321.5666504,117.9385605 321.7200317,118.4061661 322.0268555,118.6896973 C322.3336792,118.9732285 322.8382874,119.1149902 323.5407715,119.1149902 C323.6508179,119.1149902 323.758728,119.1097031 323.864502,119.0991211 C323.9702759,119.0885391 324.0761108,119.07267 324.1818848,119.0515137 L324.1818848,118.1311035 C324.0803223,118.1395645 323.9946289,118.1459122 323.9248047,118.1501465 C323.8549805,118.1543808 323.7714233,118.1564941 323.6740723,118.1564941 C323.3186035,118.1564941 323.0604858,118.0655136 322.8996582,117.8835449 C322.7388306,117.7015762 322.6584473,117.4095917 322.6584473,117.0075684 L322.6584473,113.135498 L324.1818848,113.135498 L324.1818848,112.2214355 L322.6584473,112.2214355 L322.6584473,110.4504395 C322.6584473,110.4504395 322.6034546,110.4504395 322.4934082,110.4504395 C322.3833618,110.4504395 322.2564087,110.4504395 322.1125488,110.4504395 C321.968689,110.4504395 321.8417358,110.4504395 321.7316895,110.4504395 C321.6216431,110.4504395 321.5666504,110.4504395 321.5666504,110.4504395 Z M325.7561035,119.064209 L326.8479004,119.064209 L326.8479004,114.8239746 C326.8479004,114.3415527 327.0171509,113.9437714 327.3557129,113.6306152 C327.6942749,113.3174591 328.1237793,113.1608887 328.6442871,113.1608887 C328.7543335,113.1608887 328.8876343,113.1682968 329.0441895,113.1831055 C329.2007446,113.1979141 329.3002319,113.2116699 329.3425293,113.2243652 L329.3425293,112.1325684 C329.2748413,112.1241074 329.1891479,112.1166992 329.0854492,112.1103516 C328.9817505,112.1040039 328.885498,112.1008301 328.7966309,112.1008301 C328.343811,112.1008301 327.9396973,112.2066269 327.5842285,112.4182129 C327.2287598,112.6297989 327.0002441,112.9027481 326.8986816,113.2370605 L326.7971191,113.2370605 L326.7971191,112.2214355 L325.7561035,112.2214355 C325.7561035,112.2214355 325.7561035,112.4520645 325.7561035,112.9133301 C325.7561035,113.3745956 325.7561035,113.9448242 325.7561035,114.6240234 C325.7561035,115.3032227 325.7561035,115.9824219 325.7561035,116.6616211 C325.7561035,117.3408203 325.7561035,117.9110489 325.7561035,118.3723145 C325.7561035,118.83358 325.7561035,119.064209 325.7561035,119.064209 Z M330.6564941,119.064209 L331.748291,119.064209 L331.748291,112.2214355 L330.6564941,112.2214355 C330.6564941,112.2214355 330.6564941,112.4520645 330.6564941,112.9133301 C330.6564941,113.3745956 330.6564941,113.9448242 330.6564941,114.6240234 C330.6564941,115.3032227 330.6564941,115.9824219 330.6564941,116.6616211 C330.6564941,117.3408203 330.6564941,117.9110489 330.6564941,118.3723145 C330.6564941,118.83358 330.6564941,119.064209 330.6564941,119.064209 Z M331.2023926,110.8312988 C331.4140015,110.8312988 331.593811,110.7561874 331.7419434,110.605957 C331.8900757,110.4557266 331.9641113,110.2769394 331.9641113,110.0695801 C331.9641113,109.8579865 331.8900757,109.6781387 331.7419434,109.5300293 C331.593811,109.3819199 331.4140015,109.3078613 331.2023926,109.3078613 C330.9950562,109.3078613 330.8162231,109.3819199 330.6660156,109.5300293 C330.5158081,109.6781387 330.4406738,109.8579865 330.4406738,110.0695801 C330.4406738,110.2769394 330.5158081,110.4557266 330.6660156,110.605957 C330.8162231,110.7561874 330.9950562,110.8312988 331.2023926,110.8312988 Z M333.7541504,119.064209 L334.8459473,119.064209 L334.8459473,115.0144043 C334.8459473,114.4134903 335.0088501,113.9416504 335.3347168,113.598877 C335.6605835,113.2561035 336.0964355,113.0847168 336.642334,113.0847168 C337.1882324,113.0847168 337.5934448,113.2328262 337.8579102,113.5290527 C338.1223755,113.8252792 338.2546387,114.2823029 338.2546387,114.9001465 L338.2546387,119.064209 L339.3464355,119.064209 L339.3464355,114.6335449 C339.3464355,113.8210373 339.1401367,113.1958008 338.7275391,112.7578125 C338.3149414,112.3198242 337.7235718,112.1008301 336.9533691,112.1008301 C336.4286194,112.1008301 335.9980469,112.2066269 335.6616211,112.4182129 C335.3251953,112.6297989 335.0702515,112.9239044 334.8967285,113.3005371 L334.795166,113.3005371 L334.795166,112.2214355 L333.7541504,112.2214355 C333.7541504,112.2214355 333.7541504,112.4520645 333.7541504,112.9133301 C333.7541504,113.3745956 333.7541504,113.9448242 333.7541504,114.6240234 C333.7541504,115.3032227 333.7541504,115.9824219 333.7541504,116.6616211 C333.7541504,117.3408203 333.7541504,117.9110489 333.7541504,118.3723145 C333.7541504,118.83358 333.7541504,119.064209 333.7541504,119.064209 Z M344.0310059,117.9978027 C343.3962402,117.9978027 342.9074707,117.7745819 342.5646973,117.328125 C342.2219238,116.8816681 342.0505371,116.2860565 342.0505371,115.5412598 C342.0505371,114.796463 342.2219238,114.2008514 342.5646973,113.7543945 C342.9074707,113.3079376 343.3962402,113.0847168 344.0310059,113.0847168 C344.6615601,113.0847168 345.1577148,113.3079376 345.5195313,113.7543945 C345.8813477,114.2008514 346.0622559,114.796463 346.0622559,115.5412598 C346.0622559,116.2860565 345.8823853,116.8816681 345.5227051,117.328125 C345.1630249,117.7745819 344.6657715,117.9978027 344.0310059,117.9978027 Z M344.0817871,121.6921387 C345.0170288,121.6921387 345.758606,121.465744 346.3066406,121.0129395 C346.8546753,120.5601349 347.1286621,119.9507675 347.1286621,119.1848145 L347.1286621,112.2214355 L346.0876465,112.2214355 L346.0876465,113.3068848 L345.986084,113.3068848 C345.7914429,112.9387207 345.4962769,112.645668 345.1005859,112.4277344 C344.704895,112.2098007 344.2680054,112.1008301 343.7897949,112.1008301 C342.9095764,112.1008301 342.2113647,112.4182129 341.6950684,113.0529785 C341.178772,113.6877441 340.9206543,114.5171661 340.9206543,115.5412598 C340.9206543,116.5653534 341.1777344,117.3916016 341.6918945,118.0200195 C342.2060547,118.6484375 342.9053345,118.9626465 343.7897949,118.9626465 C344.2595215,118.9626465 344.680603,118.8600235 345.0529785,118.6547852 C345.425354,118.4495468 345.7194824,118.1586151 345.9353027,117.7819824 L346.0368652,117.7819824 L346.0368652,119.1276855 C346.0368652,119.6312714 345.8644409,120.0258789 345.5195313,120.3115234 C345.1746216,120.597168 344.6954041,120.7399902 344.0817871,120.7399902 C343.5908813,120.7399902 343.1973267,120.6564102 342.901123,120.4892578 C342.6049194,120.3221054 342.4271851,120.098877 342.3679199,119.8195801 L341.2126465,119.8195801 C341.2973022,120.3866425 341.590332,120.8404922 342.0917969,121.1811523 C342.5932617,121.5218124 343.2565918,121.6921387 344.0817871,121.6921387 Z M349.6169434,115.2556152 C349.6169434,116.4024277 349.7650757,117.44767 350.0612793,118.3913574 C350.3574829,119.3350449 350.8103027,120.2089005 351.4196777,121.0129395 L352.3464355,121.0129395 C351.8936157,120.4374161 351.5127563,119.6037674 351.2038574,118.5119629 C350.8949585,117.4201584 350.7404785,116.3347244 350.7404785,115.2556152 C350.7404785,114.1807404 350.8959961,113.0974197 351.2070313,112.0056152 C351.5180664,110.9138107 351.8978882,110.080162 352.3464355,109.5046387 L351.4196777,109.5046387 C350.8103027,110.3086777 350.3574829,111.1825333 350.0612793,112.1262207 C349.7650757,113.0699081 349.6169434,114.1130295 349.6169434,115.2556152 Z M356.3962402,115.2556152 C356.3962402,114.1130295 356.2481079,113.0699081 355.9519043,112.1262207 C355.6557007,111.1825333 355.2028809,110.3086777 354.5935059,109.5046387 L353.666748,109.5046387 C354.1195679,110.080162 354.5004272,110.9138107 354.8093262,112.0056152 C355.1182251,113.0974197 355.2727051,114.1807404 355.2727051,115.2556152 C355.2727051,116.3347244 355.1182251,117.4201584 354.8093262,118.5119629 C354.5004272,119.6037674 354.1195679,120.4374161 353.666748,121.0129395 L354.5935059,121.0129395 C355.2028809,120.2089005 355.6557007,119.3350449 355.9519043,118.3913574 C356.2481079,117.44767 356.3962402,116.4024277 356.3962402,115.2556152 Z M357.9387207,119.064209" style="fill:rgb(23,55,94);stroke:none" clip-path="url(#clip13)" />
<clipPath id="clip14"><path d="M256,178 L334,178 L334,217 L256,217 L256,178 Z" /></clipPath>
<path d="M263,180 C260.2385864,180 258,182.2385712 258,185 L258,209 C258,211.7614288 260.2385864,214 263,214 L326,214 C328.7614136,214 331,211.7614288 331,209 L331,185 C331,182.2385712 328.7614136,180 326,180 Z M263,180" style="fill:rgb(220,230,242);stroke:none" clip-path="url(#clip14)" />
<clipPath id="clip15"><path d="M256,178 L334,178 L334,217 L256,217 L256,178 Z" /></clipPath>
<path d="M263,180 C260.2385864,180 258,182.2385712 258,185 L258,209 C258,211.7614288 260.2385864,214 263,214 L326,214 C328.7614136,214 331,211.7614288 331,209 L331,185 C331,182.2385712 328.7614136,180 326,180 Z M263,180" style="fill:none;stroke:rgb(85,142,213);stroke-width:2" clip-path="url(#clip15)" />
<clipPath id="clip16"><path d="M270,187 L320,187 L320,208 L270,208 L270,187 Z" /></clipPath>
<path d="M274.0002441,192.145752 L274.0002441,201.3054199 L275.1428223,201.3054199 L275.1428223,198.036377 L277.4470215,198.036377 C278.3060913,198.036377 279.0117188,197.7623749 279.5639648,197.2143555 C280.1162109,196.6663361 280.392334,195.9649353 280.392334,195.1101074 C280.392334,194.2383575 280.1204529,193.5263672 279.5766602,192.9741211 C279.0328674,192.421875 278.32724,192.145752 277.4597168,192.145752 C277.4597168,192.145752 277.2851563,192.145752 276.9360352,192.145752 C276.5869141,192.145752 276.184906,192.145752 275.7299805,192.145752 C275.2750549,192.145752 274.8730469,192.145752 274.5239258,192.145752 C274.1748047,192.145752 274.0002441,192.145752 274.0002441,192.145752 Z M275.1428223,193.161377 L277.161377,193.161377 C277.8257751,193.161377 278.3346252,193.3285217 278.6879883,193.6628418 C279.0413513,193.9971619 279.2180176,194.4795685 279.2180176,195.1101074 C279.2180176,195.7152557 279.0381775,196.184967 278.6784668,196.5192871 C278.3187561,196.8536072 277.8130798,197.020752 277.161377,197.020752 L275.1428223,197.020752 C275.1428223,197.020752 275.1428223,196.890625 275.1428223,196.6303711 C275.1428223,196.3701172 275.1428223,196.0485077 275.1428223,195.6655273 C275.1428223,195.282547 275.1428223,194.8995819 275.1428223,194.5166016 C275.1428223,194.1336212 275.1428223,193.8120117 275.1428223,193.5517578 C275.1428223,193.2915039 275.1428223,193.161377 275.1428223,193.161377 Z M283.8962402,200.4675293 C283.4984436,200.4675293 283.168396,200.3702087 282.9060059,200.1755371 C282.6436157,199.9808655 282.5124512,199.7100525 282.5124512,199.3630371 C282.5124512,198.6859436 283.0117798,198.3135681 284.010498,198.2458496 L285.8513184,198.1252441 L285.8513184,198.7536621 C285.8513184,199.2403259 285.6661987,199.6476135 285.2958984,199.9755859 C284.9255981,200.3035583 284.4590759,200.4675293 283.8962402,200.4675293 Z M283.6931152,201.4260254 C284.1501465,201.4260254 284.5606079,201.3287048 284.9245605,201.1340332 C285.2885132,200.9393616 285.5804749,200.66008 285.8005371,200.2961426 L285.9020996,200.2961426 L285.9020996,201.3054199 L286.9431152,201.3054199 L286.9431152,196.6208496 C286.9431152,195.9099121 286.7177734,195.3523865 286.2670898,194.9482422 C285.8164063,194.5440979 285.1742554,194.342041 284.3405762,194.342041 C283.6127014,194.342041 283.0012207,194.5081329 282.5061035,194.840332 C282.0109863,195.1725311 281.7274475,195.613678 281.6555176,196.1638184 L282.7600098,196.1638184 C282.8361816,195.8929749 283.0096741,195.6835022 283.2805176,195.5354004 C283.5513611,195.3872986 283.8919983,195.3132324 284.3024902,195.3132324 C285.3350525,195.3132324 285.8513184,195.7490997 285.8513184,196.6208496 L285.8513184,197.2429199 L283.8771973,197.3635254 C282.2141113,197.4608459 281.3825684,198.1358185 281.3825684,199.3884277 C281.3825684,200.01474 281.6015625,200.5108948 282.0395508,200.8769531 C282.4775391,201.2430115 283.028717,201.4260254 283.6931152,201.4260254 Z M288.885498,201.3054199 L289.9772949,201.3054199 L289.9772949,197.0651855 C289.9772949,196.5827637 290.1465454,196.1849823 290.4851074,195.8718262 C290.8236694,195.55867 291.2531738,195.4020996 291.7736816,195.4020996 C291.8836975,195.4020996 292.0169983,195.4095154 292.173584,195.4243164 C292.3301697,195.4391174 292.4295959,195.4528809 292.4719238,195.4655762 L292.4719238,194.3737793 C292.4042053,194.3653259 292.318512,194.3579102 292.2148438,194.3515625 C292.1111755,194.3452148 292.0148926,194.342041 291.9260254,194.342041 C291.4732056,194.342041 291.0690918,194.4478455 290.713623,194.6594238 C290.3581543,194.8710022 290.1296387,195.1439514 290.0280762,195.4782715 L289.9265137,195.4782715 L289.9265137,194.4626465 L288.885498,194.4626465 C288.885498,194.4626465 288.885498,194.6932678 288.885498,195.154541 C288.885498,195.6158142 288.885498,196.1860352 288.885498,196.8652344 C288.885498,197.5444336 288.885498,198.2236328 288.885498,198.902832 C288.885498,199.5820313 288.885498,200.1522522 288.885498,200.6135254 C288.885498,201.0747986 288.885498,201.3054199 288.885498,201.3054199 Z M293.4748535,196.3352051 C293.4748535,196.8303223 293.6261292,197.223877 293.9287109,197.5158691 C294.2312927,197.8078613 294.7020569,198.032135 295.3410645,198.1887207 L296.5153809,198.4743652 C296.8793335,198.5632324 297.1512146,198.6870117 297.3310547,198.8457031 C297.5108948,199.0043945 297.6008301,199.20224 297.6008301,199.439209 C297.6008301,199.7523651 297.4527283,200.0083923 297.1564941,200.2072754 C296.86026,200.4061584 296.4815369,200.5056152 296.0202637,200.5056152 C295.5843811,200.5056152 295.2310486,200.4199219 294.9602051,200.2485352 C294.6893616,200.0771484 294.5074158,199.84758 294.4143066,199.5598145 L293.2907715,199.5598145 C293.3500061,200.1268768 293.6229553,200.5796661 294.1096191,200.9182129 C294.596283,201.2567596 295.220459,201.4260254 295.9821777,201.4260254 C296.7608337,201.4260254 297.4125061,201.2345428 297.9372559,200.8515625 C298.4620056,200.4685822 298.7243652,199.9703064 298.7243652,199.3566895 C298.7243652,198.865799 298.5667419,198.4733124 298.2514648,198.1791992 C297.9361877,197.8850861 297.4569702,197.6597595 296.8137207,197.5031738 L295.7600098,197.2492676 C295.3579712,197.151947 295.0596619,197.0260315 294.8649902,196.871582 C294.6703186,196.7171326 294.572998,196.5235291 294.572998,196.2907715 C294.572998,195.986084 294.7126465,195.7395935 294.9919434,195.5512695 C295.2712402,195.3629456 295.6140137,195.2687988 296.0202637,195.2687988 C296.4349976,195.2687988 296.7713928,195.3513184 297.029541,195.5163574 C297.2876892,195.6813965 297.4527283,195.9014435 297.5246582,196.1765137 L298.6037598,196.1765137 C298.5318298,195.613678 298.2641602,195.1672363 297.8007813,194.8371582 C297.3374023,194.5070801 296.7460327,194.342041 296.0266113,194.342041 C295.2987366,194.342041 294.6914978,194.5324707 294.204834,194.9133301 C293.7181702,195.2941895 293.4748535,195.7681427 293.4748535,196.3352051 Z M303.0915527,195.3068848 C303.6332397,195.3068848 304.0711975,195.4909668 304.4055176,195.8591309 C304.7398376,196.2272949 304.9133301,196.7139435 304.9260254,197.3190918 L301.1555176,197.3190918 C301.1978455,196.7139435 301.3945923,196.2272949 301.7458496,195.8591309 C302.0971069,195.4909668 302.5456543,195.3068848 303.0915527,195.3068848 Z M304.8942871,199.5344238 C304.7503967,199.8348846 304.530365,200.0644531 304.2341309,200.2231445 C303.9378967,200.3818359 303.5697632,200.4611816 303.1296387,200.4611816 C302.5498657,200.4611816 302.0833435,200.2622986 301.7299805,199.864502 C301.3766174,199.4667053 301.1851501,198.9292908 301.1555176,198.2521973 L301.1555176,198.201416 L306.0749512,198.201416 L306.0749512,197.7824707 C306.0749512,196.7202911 305.8104858,195.8813477 305.2814941,195.265625 C304.7525024,194.6499023 304.0267944,194.342041 303.104248,194.342041 C302.1647949,194.342041 301.4157715,194.6647034 300.8571777,195.3100586 C300.298584,195.9554138 300.0192871,196.815506 300.0192871,197.8903809 C300.0192871,198.9737244 300.2964478,199.8338165 300.8508301,200.4707031 C301.4052124,201.1075897 302.156311,201.4260254 303.104248,201.4260254 C303.8532715,201.4260254 304.4795532,201.2578125 304.9831543,200.9213867 C305.4867554,200.5849609 305.8210449,200.1226501 305.986084,199.5344238 C305.986084,199.5344238 305.9310608,199.5344238 305.8210449,199.5344238 C305.7110291,199.5344238 305.5840759,199.5344238 305.4401855,199.5344238 C305.2962952,199.5344238 305.169342,199.5344238 305.0593262,199.5344238 C304.9493103,199.5344238 304.8942871,199.5344238 304.8942871,199.5344238 Z M308.220459,197.4968262 C308.220459,198.6436462 308.3685608,199.6888733 308.6647949,200.6325684 C308.9610291,201.5762634 309.4138184,202.4501038 310.0231934,203.2541504 L310.9499512,203.2541504 C310.4971313,202.6786194 310.116272,201.8449707 309.807373,200.7531738 C309.4984741,199.661377 309.3439941,198.5759277 309.3439941,197.4968262 C309.3439941,196.4219513 309.4995117,195.338623 309.8105469,194.2468262 C310.121582,193.1550293 310.5014038,192.3213806 310.9499512,191.7458496 L310.0231934,191.7458496 C309.4138184,192.5498962 308.9610291,193.4237366 308.6647949,194.3674316 C308.3685608,195.3111267 308.220459,196.354248 308.220459,197.4968262 Z M314.9997559,197.4968262 C314.9997559,196.354248 314.8516235,195.3111267 314.5554199,194.3674316 C314.2592163,193.4237366 313.8063965,192.5498962 313.1970215,191.7458496 L312.2702637,191.7458496 C312.7230835,192.3213806 313.1039429,193.1550293 313.4128418,194.2468262 C313.7217407,195.338623 313.8762207,196.4219513 313.8762207,197.4968262 C313.8762207,198.5759277 313.7217407,199.661377 313.4128418,200.7531738 C313.1039429,201.8449707 312.7230835,202.6786194 312.2702637,203.2541504 L313.1970215,203.2541504 C313.8063965,202.4501038 314.2592163,201.5762634 314.5554199,200.6325684 C314.8516235,199.6888733 314.9997559,198.6436462 314.9997559,197.4968262 Z M316.5422363,201.3054199" style="fill:rgb(23,55,94);stroke:none" clip-path="url(#clip16)" />
<clipPath id="clip17"><path d="M14,156 L86,156 L86,195 L14,195 L14,156 Z" /></clipPath>
<path d="M21,158 C18.2385712,158 16,160.2385712 16,163 L16,187 C16,189.7614288 18.2385712,192 21,192 L78,192 C80.7614288,192 83,189.7614288 83,187 L83,163 C83,160.2385712 80.7614288,158 78,158 Z M21,158" style="fill:rgb(220,230,242);stroke:none" clip-path="url(#clip17)" />
<clipPath id="clip18"><path d="M14,156 L86,156 L86,195 L14,195 L14,156 Z" /></clipPath>
<path d="M21,158 C18.2385712,158 16,160.2385712 16,163 L16,187 C16,189.7614288 18.2385712,192 21,192 L78,192 C80.7614288,192 83,189.7614288 83,187 L83,163 C83,160.2385712 80.7614288,158 78,158 Z M21,158" style="fill:none;stroke:rgb(85,142,213);stroke-width:2" clip-path="url(#clip18)" />
<clipPath id="clip19"><path d="M28,165 L72,165 L72,186 L28,186 L28,165 Z" /></clipPath>
<path d="M38.2741699,178.9658203 L39.473877,178.9658203 L36.0969238,169.8061523 L34.967041,169.8061523 L31.5900879,178.9658203 L32.7897949,178.9658203 L33.7102051,176.3442383 L37.3537598,176.3442383 C37.3537598,176.3442383 37.4003143,176.4764709 37.4934082,176.7409668 C37.5865021,177.0054626 37.6933594,177.3101349 37.8139648,177.6550293 C37.9345703,177.9999237 38.0414276,178.3045959 38.1345215,178.5690918 C38.2276154,178.8335876 38.2741699,178.9658203 38.2741699,178.9658203 Z M35.4812012,171.2851563 L35.5827637,171.2851563 L37.017334,175.3730469 L34.0466309,175.3730469 C34.0466309,175.3730469 34.0952911,175.2355194 34.192627,174.9604492 C34.2899628,174.685379 34.4095001,174.3447266 34.5512695,173.9384766 C34.6930389,173.5322266 34.8347931,173.1259766 34.9765625,172.7197266 C35.1183319,172.3134766 35.2378693,171.9728241 35.3352051,171.6977539 C35.4325409,171.4226837 35.4812012,171.2851563 35.4812012,171.2851563 Z M40.8640137,178.9658203 L41.9558105,178.9658203 L41.9558105,174.7255859 C41.9558105,174.2431641 42.1250763,173.8453827 42.463623,173.5322266 C42.8021698,173.2190704 43.2316895,173.0625 43.7521973,173.0625 C43.8622284,173.0625 43.9955292,173.0699005 44.1520996,173.0847168 C44.30867,173.0995331 44.4081268,173.1132813 44.4504395,173.1259766 L44.4504395,172.0341797 C44.3827362,172.0257111 44.2970428,172.0183105 44.1933594,172.0119629 C44.0896759,172.0056152 43.9934082,172.0024414 43.904541,172.0024414 C43.4517365,172.0024414 43.0476074,172.1082306 42.6921387,172.3198242 C42.3366699,172.5314178 42.1081543,172.8043518 42.0065918,173.1386719 L41.9050293,173.1386719 L41.9050293,172.1230469 L40.8640137,172.1230469 C40.8640137,172.1230469 40.8640137,172.3536682 40.8640137,172.8149414 C40.8640137,173.2762146 40.8640137,173.8464355 40.8640137,174.5256348 C40.8640137,175.204834 40.8640137,175.8840332 40.8640137,176.5632324 C40.8640137,177.2424316 40.8640137,177.8126526 40.8640137,178.2739258 C40.8640137,178.735199 40.8640137,178.9658203 40.8640137,178.9658203 Z M48.3161621,177.8994141 C47.6813965,177.8994141 47.192627,177.6761932 46.8498535,177.2297363 C46.5070801,176.7832794 46.3356934,176.1876678 46.3356934,175.4428711 C46.3356934,174.6980743 46.5070801,174.1024628 46.8498535,173.6560059 C47.192627,173.209549 47.6813965,172.9863281 48.3161621,172.9863281 C48.946701,172.9863281 49.4428711,173.209549 49.8046875,173.6560059 C50.1665039,174.1024628 50.3474121,174.6980743 50.3474121,175.4428711 C50.3474121,176.1876678 50.1675568,176.7832794 49.8078613,177.2297363 C49.4481659,177.6761932 48.9509277,177.8994141 48.3161621,177.8994141 Z M48.3669434,181.59375 C49.3021698,181.59375 50.0437775,181.3673553 50.5917969,180.9145508 C51.1398163,180.4617462 51.4138184,179.8523865 51.4138184,179.0864258 L51.4138184,172.1230469 L50.3728027,172.1230469 L50.3728027,173.2084961 L50.2712402,173.2084961 C50.0765839,172.840332 49.7814178,172.547287 49.3857422,172.3293457 C48.9900665,172.1114044 48.5531464,172.0024414 48.0749512,172.0024414 C47.1947327,172.0024414 46.4965057,172.3198242 45.9802246,172.9545898 C45.4639435,173.5893555 45.2058105,174.4187775 45.2058105,175.4428711 C45.2058105,176.4669647 45.4628906,177.2932129 45.9770508,177.9216309 C46.4912109,178.5500488 47.190506,178.8642578 48.0749512,178.8642578 C48.5446777,178.8642578 48.965744,178.7616425 49.3381348,178.5563965 C49.7105255,178.3511505 50.0046387,178.0602264 50.220459,177.6835938 L50.3220215,177.6835938 L50.3220215,179.0292969 C50.3220215,179.5328827 50.1495819,179.9274902 49.8046875,180.2131348 C49.4597931,180.4987793 48.9805603,180.6416016 48.3669434,180.6416016 C47.8760529,180.6416016 47.4824982,180.5580139 47.1862793,180.3908691 C46.8900604,180.2237244 46.712326,180.0004883 46.6530762,179.7211914 L45.4978027,179.7211914 C45.5824432,180.2882538 45.8754883,180.7420959 46.3769531,181.0827637 C46.878418,181.4234314 47.541748,181.59375 48.3669434,181.59375 Z M53.2355957,173.9956055 C53.2355957,174.4907227 53.386879,174.8842773 53.6894531,175.1762695 C53.9920273,175.4682617 54.4628067,175.6925354 55.1018066,175.8491211 L56.276123,176.1347656 C56.6400604,176.2236328 56.9119492,176.3474121 57.0917969,176.5061035 C57.2716446,176.6647949 57.3615723,176.8626251 57.3615723,177.0996094 C57.3615723,177.4127655 57.2134628,177.6687775 56.9172363,177.8676758 C56.6210098,178.0665741 56.2422714,178.1660156 55.7810059,178.1660156 C55.3451309,178.1660156 54.9917831,178.0803223 54.7209473,177.9089355 C54.4501114,177.7375488 54.2681503,177.5079803 54.1750488,177.2202148 L53.0515137,177.2202148 C53.1107559,177.7872772 53.3837051,178.2400665 53.8703613,178.5786133 C54.3570175,178.91716 54.9812012,179.0864258 55.7429199,179.0864258 C56.5215683,179.0864258 57.1732559,178.8949432 57.697998,178.5119629 C58.2227402,178.1289825 58.4851074,177.6307068 58.4851074,177.0170898 C58.4851074,176.5261993 58.3274765,176.1337128 58.012207,175.8395996 C57.6969376,175.5454865 57.2176971,175.3201599 56.5744629,175.1635742 L55.520752,174.909668 C55.1187286,174.8123322 54.8203964,174.6864471 54.6257324,174.5319824 C54.4310684,174.3775177 54.3337402,174.1839294 54.3337402,173.9511719 C54.3337402,173.6464844 54.4733887,173.3999939 54.7526855,173.2116699 C55.0319824,173.0233459 55.3747559,172.9291992 55.7810059,172.9291992 C56.1957245,172.9291992 56.5321426,173.0117188 56.7902832,173.1767578 C57.0484238,173.3417969 57.2134628,173.5618439 57.2854004,173.8369141 L58.364502,173.8369141 C58.2925644,173.2740784 58.0249023,172.8276367 57.5615234,172.4975586 C57.0981445,172.1674805 56.5067596,172.0024414 55.7873535,172.0024414 C55.0594864,172.0024414 54.4522324,172.1928711 53.9655762,172.5737305 C53.47892,172.9545898 53.2355957,173.4285431 53.2355957,173.9956055 Z M60.6306152,175.1572266 C60.6306152,176.3040466 60.7787247,177.3492737 61.0749512,178.2929688 C61.3711777,179.2366638 61.8239746,180.1105042 62.4333496,180.9145508 L63.3601074,180.9145508 C62.9073029,180.3390198 62.5264511,179.5053711 62.2175293,178.4135742 C61.9086075,177.3217773 61.7541504,176.2363281 61.7541504,175.1572266 C61.7541504,174.0823517 61.909668,172.9990234 62.2207031,171.9072266 C62.5317383,170.8154297 62.9115372,169.981781 63.3601074,169.40625 L62.4333496,169.40625 C61.8239746,170.2102966 61.3711777,171.084137 61.0749512,172.027832 C60.7787247,172.9715271 60.6306152,174.0146484 60.6306152,175.1572266 Z M67.4099121,175.1572266 C67.4099121,174.0146484 67.2618027,172.9715271 66.9655762,172.027832 C66.6693497,171.084137 66.2165527,170.2102966 65.6071777,169.40625 L64.6804199,169.40625 C65.1332245,169.981781 65.5140762,170.8154297 65.822998,171.9072266 C66.1319199,172.9990234 66.286377,174.0823517 66.286377,175.1572266 C66.286377,176.2363281 66.1319199,177.3217773 65.822998,178.4135742 C65.5140762,179.5053711 65.1332245,180.3390198 64.6804199,180.9145508 L65.6071777,180.9145508 C66.2165527,180.1105042 66.6693497,179.2366638 66.9655762,178.2929688 C67.2618027,177.3492737 67.4099121,176.3040466 67.4099121,175.1572266 Z M68.9523926,178.9658203" style="fill:rgb(23,55,94);stroke:none" clip-path="url(#clip19)" />
</svg>
